<?xml version="1.0" encoding="UTF-8" standalone="no"?>
<!-- Created with Inkscape (http://www.inkscape.org/) -->
<svg xmlns:inkscape="http://www.inkscape.org/namespaces/inkscape" xmlns:rdf="http://www.w3.org/1999/02/22-rdf-syntax-ns#" xmlns="http://www.w3.org/2000/svg" xmlns:cc="http://creativecommons.org/ns#" xmlns:dc="http://purl.org/dc/elements/1.1/" xmlns:sodipodi="http://sodipodi.sourceforge.net/DTD/sodipodi-0.dtd" xmlns:svg="http://www.w3.org/2000/svg" xmlns:ns1="http://sozi.baierouge.fr" xmlns:xlink="http://www.w3.org/1999/xlink" id="svg2" sodipodi:docname="crash.svg" viewBox="0 0 772.84 709.98" version="1.1" inkscape:version="0.47 r22583">
  <sodipodi:namedview id="base" bordercolor="#666666" inkscape:pageshadow="2" inkscape:window-y="24" pagecolor="#ffffff" inkscape:window-height="1005" inkscape:window-maximized="1" inkscape:zoom="1.4" inkscape:window-x="0" showgrid="false" borderopacity="1.0" inkscape:current-layer="layer1" inkscape:cx="464.19296" inkscape:cy="434.96198" inkscape:window-width="1920" inkscape:pageopacity="0.0" inkscape:document-units="px"/>
  <g id="layer1" inkscape:label="Capa 1" inkscape:groupmode="layer" transform="translate(-18.581 -233.09)">
    <path id="path2816" style="fill-rule:evenodd;stroke:#000000;stroke-miterlimit:8.8;stroke-width:12.437;fill:#d40000" sodipodi:nodetypes="ccccccccccccccccc" transform="matrix(.80404 0 0 .80404 136.23 145.31)" d="m710.96 880.08-280.91-134.02-40.45 239.91-214.27-218.88-277.07 151.39 153.57-295.13-191.93-54.66 179.78-127.21-178.03-190.01 277.35 70.06 93.76-206.15 143.2 176.24 330.37-137.17-151.79 245.37 254.12 93.76-247.31 100.55 149.61 285.95z"/>
    <path id="path3591" sodipodi:nodetypes="ccccccccccccccccc" style="fill-rule:evenodd;stroke:#000000;stroke-miterlimit:8.8;stroke-width:6.9315;fill:#ffff00" d="m624.93 767.38-166.55-70.41-36.83 149.42-105.14-137.7-162.98 77.23 94.16-157.34-115.54-40.47 108.77-60.89-99.23-105.9l154.58 39.045 45.108-116.32 86.952 99.648 188.41-100.73-90.31 138.18 155.91 63.679-159.26 61.758 101.95 160.79z"/>
    <path id="path3593" sodipodi:nodetypes="ccccccccccccccccc" style="fill-rule:evenodd;stroke:#000000;stroke-miterlimit:8.8;stroke-width:4.1588;fill:#ffffff" d="m543.53 695.44-105.65-39.386-22.097 89.649-63.078-82.618-97.789 46.335 56.493-94.4-82.18-31.422 78.118-29.394-59.533-63.535 92.744 23.427 27.064-69.79 52.17 59.787 107.33-76.153-55.613 80.05 102.12 43.921-96.98 49.911 66.884 93.617z"/>
    <path id="path3622" style="fill:#ff0000" sodipodi:type="inkscape:offset" d="m206.5 618.94c-6.4606 0.00004-12.808 2.0464-17.375 6.4062-0.0107 0.0102-0.0206 0.0211-0.0312 0.0312-4.5379 4.3491-6.875 10.695-6.875 17.125 0 6.4365 2.3319 12.769 6.875 17.125a7.9868 7.9868 0 0 0 0.0312 0.0312c4.5591 4.35 10.885 6.4062 17.375 6.4062 2.2703 0 4.5084-0.28194 6.6875-0.8125 1.3507-0.32888 2.6931-0.95383 4.0312-1.5a7.9868 7.9868 0 0 0 4.9688 1.75h7.75a7.9868 7.9868 0 0 0 5.5625 -2.2812 7.9868 7.9868 0 0 0 5.5625 2.2812h8.25a7.9868 7.9868 0 0 0 0.53125 -0.0312 7.9868 7.9868 0 0 0 0.46875 0.0312h7.7812a7.9868 7.9868 0 0 0 7.5312 -5.375l0.0312-0.0937h0.78125l0.0312 0.0937a7.9868 7.9868 0 0 0 7.54 5.38h7.7812a7.9868 7.9868 0 0 0 4.0625 -1.125c1.2031 0.34455 2.384 0.76568 3.625 1 2.4152 0.45603 4.8105 0.6875 7.1875 0.6875 4.5464 0 8.9261-0.8582 12.688-3.375a7.9868 7.9868 0 0 0 6.0625 2.8125h7.75a7.9868 7.9868 0 0 0 5.7188 -2.4375 7.9868 7.9868 0 0 0 5.6875 2.4375h7.75a7.9868 7.9868 0 0 0 0.5 -0.0312c0.33143 1.3442 0.91879 2.744 2.0625 4.0938 2.0598 2.4308 5.4168 3.4687 7.7188 3.4688 2.7447-0.00004 6.334-1.9774 7.9688-4.1875l0.0312 0.0312c0.0334-0.0459 0.0299-0.10975 0.0625-0.15625 0.0395-0.056 0.11945-0.1 0.15625-0.15625l-0.0625-0.0312c1.2461-1.8665 1.9062-4.1187 1.9062-6.0938-0.00001-1.6559-0.28266-3.6301-1.4688-5.8125 0.0278-0.18479 0.1296-0.40491 0.15625-0.59375 0.36394-2.5784 0.49999-5.5671 0.5-9.4688-0.00001-1.4487 0.0405-3.8627 0.1875-7.0312 0.001-0.0281-0.001-0.0342 0-0.0625 0.17543-3.3171 0.31249-5.84 0.3125-7.8125-0.00001-1.6667-0.10866-3.6736-1.6562-6.0938-1.5476-2.4201-5.2537-4.3124-7.875-4.3125-1.2857 0.00005-2.8542 0.0803-4.5938 0.875a7.9868 7.9868 0 0 0 -5.9062 -2.6562h-7.75a7.9868 7.9868 0 0 0 -5.7188 2.4375 7.9868 7.9868 0 0 0 -5.6875 -2.4375h-7.75a7.9868 7.9868 0 0 0 -5.0938 1.8438 7.9868 7.9868 0 0 0 -1.625 -0.625c-2.1591-0.57469-4.2699-0.99602-6.3125-1.2812-0.0211-0.003-0.0414 0.003-0.0625 0-2.1011-0.30396-4.1706-0.46871-6.1875-0.46875-4.7926 0.00004-9.6254 1.1045-13.438 4.2812-1.4428 1.2024-2.5282 2.733-3.4375 4.375l-1.0938-2.9062a7.9868 7.9868 0 0 0 -7.5 -5.2188h-9.2188a7.9868 7.9868 0 0 0 -7.5 5.2188l-1.7812 4.7812c-0.99439-2.518-2.5243-4.8594-4.75-6.4688-0.0119-0.009-0.0193-0.0227-0.0312-0.0312-4.0198-2.8892-8.4979-3.5-13.344-3.5h-11.844a7.9868 7.9868 0 0 0 -4.9688 1.75c-1.3348-0.54418-2.684-1.1407-4.0312-1.4688-2.179-0.5305-4.4173-0.81246-6.6875-0.8125zm23.438 17.344v0.625 0.65625c-0.0674-0.26944-0.1875-0.6551-0.1875-0.65625 0 0.007 0.12446-0.37259 0.1875-0.625zm-23.38 4.22c0.0262-0.0293-0.48867 0.0313 0.5625 0.0312 0.741 0.00001 1.3602 0.0925 1.9375 0.28125 0.55055 0.18 1.3033 0.53171 2.2188 1.1562a7.9868 7.9868 0 0 0 0.9375 0.53125 7.9868 7.9868 0 0 0 -0.9375 0.53125c-0.91541 0.62453-1.6683 0.9763-2.2188 1.1562-0.57726 0.18872-1.1966 0.28125-1.9375 0.28125-1.0511 0-0.53635 0.0605-0.5625 0.0312-0.0278-0.0311-0.34376-0.26777-0.34375-2-0.00001-1.7515 0.30252-1.9539 0.34375-2z" inkscape:original="M 206.5 626.9375 C 201.5003 626.93753 197.54706 628.3236 194.625 631.125 C 191.70293 633.91305 190.21875 637.70139 190.21875 642.5 C 190.21875 647.28523 191.70293 651.07357 194.625 653.875 C 197.54706 656.66303 201.5003 658.0625 206.5 658.0625 C 208.17548 658.0625 209.77102 657.87531 211.3125 657.5 C 212.85393 657.12469 214.3604 656.58097 215.78125 655.84375 L 215.78125 649.625 C 214.347 650.6035 212.92524 651.32552 211.53125 651.78125 C 210.13721 652.23699 208.66644 652.46876 207.125 652.46875 C 204.36376 652.46876 202.17541 651.58183 200.59375 649.8125 C 199.01207 648.04318 198.21874 645.59633 198.21875 642.5 C 198.21874 639.39029 199.01207 636.95685 200.59375 635.1875 C 202.17541 633.4182 204.36376 632.53127 207.125 632.53125 C 208.66644 632.53127 210.13721 632.76304 211.53125 633.21875 C 212.92524 633.67451 214.347 634.39653 215.78125 635.375 L 215.78125 629.15625 C 214.3604 628.41906 212.85393 627.87534 211.3125 627.5 C 209.77102 627.12472 208.17548 626.93753 206.5 626.9375 z M 296.125 626.9375 C 292.50591 626.93753 289.74267 627.7353 287.8125 629.34375 C 285.88232 630.95226 284.90625 633.26093 284.90625 636.25 C 284.90625 638.63593 285.58814 640.5301 286.96875 641.9375 C 288.36276 643.34493 290.56 644.35662 293.5625 645 L 296.5625 645.65625 C 298.38543 646.05838 299.61555 646.52191 300.21875 647.03125 C 300.83531 647.54061 301.12498 648.28048 301.125 649.21875 C 301.12498 650.26427 300.6793 651.06204 299.78125 651.625 C 298.88317 652.18797 297.59514 652.46876 295.90625 652.46875 C 294.24414 652.46876 292.51487 652.19686 290.71875 651.6875 C 288.93601 651.16475 287.10427 650.39371 285.1875 649.375 L 285.1875 655.90625 C 287.10427 656.61666 289.02072 657.16934 290.9375 657.53125 C 292.85426 657.89316 294.75287 658.0625 296.65625 658.0625 C 300.69083 658.0625 303.668 657.26473 305.625 655.65625 C 307.59536 654.03437 308.59372 651.56079 308.59375 648.25 C 308.59372 645.73006 307.90739 643.80472 306.5 642.4375 C 305.09256 641.07031 302.71257 640.04522 299.375 639.375 L 296.0625 638.71875 C 294.49422 638.39707 293.41567 638.00485 292.8125 637.5625 C 292.22271 637.10678 291.93749 636.49176 291.9375 635.6875 C 291.93749 634.6152 292.36533 633.82188 293.25 633.3125 C 294.13465 632.80317 295.49399 632.53127 297.34375 632.53125 C 298.73775 632.53127 300.24421 632.71846 301.8125 633.09375 C 303.38075 633.46909 304.97629 634.04405 306.625 634.78125 L 306.625 628.40625 C 304.76182 627.91033 302.96125 627.5538 301.21875 627.3125 C 299.47621 627.05785 297.77367 626.93753 296.125 626.9375 z M 222.1875 627.46875 L 222.1875 657.5 L 229.9375 657.5 L 229.9375 646.125 L 232.125 646.125 C 233.38496 646.12501 234.40561 646.4192 235.15625 646.96875 C 235.92026 647.51832 236.66901 648.53001 237.40625 650.03125 L 241.0625 657.5 L 249.3125 657.5 L 245.09375 648.96875 C 244.23587 647.23965 243.40693 645.93821 242.5625 645.09375 C 241.73143 644.23591 240.77764 643.71004 239.71875 643.46875 C 241.6489 642.86559 243.07954 641.89839 244.03125 640.625 C 244.99631 639.35164 245.46872 637.73381 245.46875 635.75 C 245.46872 632.88157 244.56847 630.79577 242.71875 629.46875 C 240.88238 628.14178 237.98541 627.46878 234.03125 627.46875 L 222.1875 627.46875 z M 261.4375 627.46875 L 250.3125 657.5 L 258.09375 657.5 L 260 652.03125 L 272.09375 652.03125 L 274 657.5 L 281.78125 657.5 L 270.65625 627.46875 L 261.4375 627.46875 z M 315.40625 627.46875 L 315.40625 657.5 L 323.15625 657.5 L 323.15625 644.75 L 334.5625 644.75 L 334.5625 657.5 L 342.3125 657.5 L 342.3125 627.46875 L 334.5625 627.46875 L 334.5625 638.90625 L 323.15625 638.90625 L 323.15625 627.46875 L 315.40625 627.46875 z M 352.8125 629.25 C 351.99993 629.25003 351.41387 629.40203 351.0625 629.6875 C 350.71112 629.95106 350.5625 630.45014 350.5625 631.21875 C 350.5625 633.70038 350.59036 637.45235 350.65625 642.4375 C 350.74409 647.40072 350.78125 651.11215 350.78125 653.59375 C 350.78125 656.31693 351.27103 657.6875 352.28125 657.6875 C 353.31341 657.6875 353.84374 653.98535 353.84375 646.5625 C 353.84374 644.89347 353.90876 642.38793 354.0625 639.09375 C 354.23818 635.77765 354.34374 633.30336 354.34375 631.65625 C 354.34374 630.05312 353.8227 629.25003 352.8125 629.25 z M 229.9375 633.09375 L 233.1875 633.09375 C 234.80937 633.09377 235.99047 633.379 236.6875 633.96875 C 237.39789 634.55855 237.74998 635.53907 237.75 636.90625 C 237.74998 638.28688 237.39789 639.27184 236.6875 639.875 C 235.99047 640.4782 234.80937 640.78127 233.1875 640.78125 L 229.9375 640.78125 L 229.9375 633.09375 z M 266.0625 634.5 L 270.15625 646.4375 L 261.9375 646.4375 L 266.0625 634.5 z M 352.65625 659.4375 C 351.16289 659.4375 350.40625 660.43904 350.40625 662.4375 C 350.40625 664.17242 351.14431 665.03124 352.59375 665.03125 C 353.25258 665.03124 353.75165 664.75848 354.125 664.1875 C 354.47637 663.70435 354.65624 663.11829 354.65625 662.4375 C 354.65624 660.43904 353.99587 659.4375 352.65625 659.4375 z " transform="rotate(-12.839)" inkscape:radius="7.9859571"/>
    <text id="text3595" style="font-size:41.177px;font-family:Vemana2000;fill:#000000;line-height:100%;font-weight:bold" xml:space="preserve" transform="rotate(-12.839)" y="657.48877" x="188.18086" sodipodi:linespacing="100%">
      <tspan id="tspan3597" sodipodi:role="line" x="188.18086" y="657.48877">CRASH!</tspan>
    </text>
  </g>
  <metadata>
    <rdf:RDF>
      <cc:Work>
        <dc:format>image/svg+xml</dc:format>
        <dc:type rdf:resource="http://purl.org/dc/dcmitype/StillImage"/>
        <cc:license rdf:resource="http://creativecommons.org/licenses/publicdomain/"/>
        <dc:publisher>
          <cc:Agent rdf:about="http://openclipart.org/">
            <dc:title>Openclipart</dc:title>
          </cc:Agent>
        </dc:publisher>
        <dc:title>Crash</dc:title>
        <dc:date>2012-01-04T16:54:08</dc:date>
        <dc:description>Crash</dc:description>
        <dc:source>https://openclipart.org/detail/166838/crash-by-roshellin</dc:source>
        <dc:creator>
          <cc:Agent>
            <dc:title>roshellin</dc:title>
          </cc:Agent>
        </dc:creator>
        <dc:subject>
          <rdf:Bag>
            <rdf:li>crash</rdf:li>
          </rdf:Bag>
        </dc:subject>
      </cc:Work>
      <cc:License rdf:about="http://creativecommons.org/licenses/publicdomain/">
        <cc:permits rdf:resource="http://creativecommons.org/ns#Reproduction"/>
        <cc:permits rdf:resource="http://creativecommons.org/ns#Distribution"/>
        <cc:permits rdf:resource="http://creativecommons.org/ns#DerivativeWorks"/>
      </cc:License>
    </rdf:RDF>
  </metadata>
</svg>