<?xml version="1.0" encoding="UTF-8" standalone="no"?>
<!-- Created with Inkscape (http://www.inkscape.org/) -->

<svg
   xmlns:i="http://ns.adobe.com/AdobeIllustrator/10.0/"
   xmlns:dc="http://purl.org/dc/elements/1.1/"
   xmlns:cc="http://creativecommons.org/ns#"
   xmlns:rdf="http://www.w3.org/1999/02/22-rdf-syntax-ns#"
   xmlns:svg="http://www.w3.org/2000/svg"
   xmlns="http://www.w3.org/2000/svg"
   xmlns:sodipodi="http://sodipodi.sourceforge.net/DTD/sodipodi-0.dtd"
   xmlns:inkscape="http://www.inkscape.org/namespaces/inkscape"
   width="7.0555553mm"
   height="7.6199999mm"
   viewBox="0 0 24.999999 26.999999"
   id="svg4480"
   version="1.1"
   inkscape:version="0.91 r13725"
   sodipodi:docname="logo.svg">
  <defs
     id="defs4482" />
  <sodipodi:namedview
     id="base"
     pagecolor="#ffffff"
     bordercolor="#666666"
     borderopacity="1.0"
     inkscape:pageopacity="0.0"
     inkscape:pageshadow="2"
     inkscape:zoom="15.839192"
     inkscape:cx="7.6867992"
     inkscape:cy="18.711208"
     inkscape:document-units="px"
     inkscape:current-layer="layer1"
     showgrid="true"
     fit-margin-top="0"
     fit-margin-left="0"
     fit-margin-right="0"
     fit-margin-bottom="0"
     inkscape:window-width="1600"
     inkscape:window-height="825"
     inkscape:window-x="-2"
     inkscape:window-y="0"
     inkscape:window-maximized="1">
    <inkscape:grid
       type="xygrid"
       id="grid5036"
       originx="0.99999996"
       originy="0.99997786" />
  </sodipodi:namedview>
  <metadata
     id="metadata4485">
    <rdf:RDF>
      <cc:Work
         rdf:about="">
        <dc:format>image/svg+xml</dc:format>
        <dc:type
           rdf:resource="http://purl.org/dc/dcmitype/StillImage" />
        <dc:title></dc:title>
      </cc:Work>
    </rdf:RDF>
  </metadata>
  <g
     inkscape:label="Layer 1"
     inkscape:groupmode="layer"
     id="layer1"
     transform="translate(1,-1026.3622)">
    <path
       style="overflow:visible;fill:#ff0000"
       inkscape:connector-curvature="0"
       id="path309"
       d="m 22.960265,1029.2043 c 0,0 -4.28604,-1.8421 -11.45888,-1.8421 l -0.002,0 c -7.1749101,0 -11.45993005,1.8421 -11.45993005,1.8421 0,0 -0.38383,8.1569 1.24285995,12.7692 2.8736,8.11 10.2170401,10.3887 10.2170401,10.3887 l 0.002,0 10e-4,0 c 0,0 7.34241,-2.2787 10.21703,-10.3887 1.62567,-4.6123 1.24083,-12.7692 1.24083,-12.7692"
       i:knockout="Off" />
    <polygon
       transform="matrix(1.0154083,0,0,0.99681021,-1.450525e-4,1027.3622)"
       style="overflow:visible;fill:#ffffff"
       id="polygon311"
       points="9.057,13.411 3.796,13.411 3.796,8.902 9.057,8.902 9.057,3.643 13.565,3.643 13.565,8.902 18.826,8.902 18.826,13.411 13.565,13.411 13.565,18.67 9.057,18.67 "
       i:knockout="Off" />
  </g>
</svg>
